<svg width="85" height="35" viewBox="0 0 85 35" fill="none" xmlns="http://www.w3.org/2000/svg">
<g id="Group 1084">
<path id="Vector" d="M9 1H25.01C29.43 1 33.01 4.58 33.01 9V25.01C33.01 29.43 29.43 33.01 25.01 33.01H9C4.58 33.01 1 29.43 1 25.01V9C1 4.58 4.58 1 9 1Z" stroke="white" stroke-width="2" stroke-linecap="round" stroke-linejoin="round"/>
<path id="Vector_2" d="M23.4101 16C23.8201 18.73 22.4201 21.42 19.9501 22.66C17.4801 23.9 14.5001 23.42 12.5401 21.47C10.5901 19.52 10.1101 16.53 11.3501 14.06C12.5901 11.59 15.2801 10.2 18.0101 10.6C20.8001 11.01 22.9901 13.2 23.4101 16Z" stroke="white" stroke-width="2" stroke-linecap="round" stroke-linejoin="round"/>
<path id="Vector_3" d="M59.02 1H75.03C79.45 1 83.03 4.58 83.03 9V25.01C83.03 29.43 79.45 33.01 75.03 33.01H59.02C54.6 33.01 51.02 29.43 51.02 25.01V9C51.02 4.58 54.6 1 59.02 1Z" stroke="white" stroke-width="2" stroke-linecap="round" stroke-linejoin="round"/>
<path id="Vector_4" d="M60.3902 33.0199H60.0002C57.6302 33.0199 55.4502 31.8499 54.1602 29.8799C55.7702 31.6899 57.9902 32.7999 60.3902 33.0199ZM70.7502 33.0199H66.9602V19.8999H63.1702V16.1499H66.9602V13.3399C66.9602 10.7599 69.0902 8.6499 71.7002 8.6499H76.4402V12.3999H71.7002C71.1802 12.3999 70.7502 12.8199 70.7502 13.3399V16.1499H75.9702L75.0202 19.8999H70.7502V33.0199ZM73.9102 33.0199H73.5002C75.9102 32.8099 78.1402 31.6999 79.7602 29.8799C78.4702 31.8499 76.2902 33.0199 73.9202 33.0199H73.9102Z" fill="white"/>
</g>
</svg>
