<svg width="94" height="16" viewBox="0 0 94 16" fill="none" xmlns="http://www.w3.org/2000/svg">
<g id="Group 22">
<path id="Arrow 1" d="M93.7071 8.70711C94.0976 8.31658 94.0976 7.68342 93.7071 7.29289L87.3431 0.928932C86.9526 0.538408 86.3195 0.538408 85.9289 0.928932C85.5384 1.31946 85.5384 1.95262 85.9289 2.34315L91.5858 8L85.9289 13.6569C85.5384 14.0474 85.5384 14.6805 85.9289 15.0711C86.3195 15.4616 86.9526 15.4616 87.3431 15.0711L93.7071 8.70711ZM61 9H93V7H61V9Z" fill="#2B3252"/>
<path id="Arrow 2" opacity="0.2" d="M0.292893 7.29289C-0.0976295 7.68341 -0.0976296 8.31658 0.292892 8.7071L6.65685 15.0711C7.04738 15.4616 7.68054 15.4616 8.07107 15.0711C8.46159 14.6805 8.46159 14.0474 8.07107 13.6569L2.41421 8L8.07107 2.34314C8.46159 1.95262 8.46159 1.31945 8.07107 0.92893C7.68054 0.538406 7.04738 0.538406 6.65686 0.92893L0.292893 7.29289ZM33 7L1 7L1 9L33 9L33 7Z" fill="#2B3252"/>
</g>
</svg>
